<svg xmlns="http://www.w3.org/2000/svg" viewBox="0 0 53 53" shape-rendering="crispEdges"><path fill="#FFFFFF" d="M0 0h53v53H0z"/><path stroke="#2E2E2E" d="M2 2.5h7m3 0h4m1 0h2m2 0h3m1 0h1m1 0h5m2 0h1m1 0h1m5 0h1m1 0h7M2 3.5h1m5 0h1m3 0h3m1 0h1m1 0h4m8 0h1m1 0h4m1 0h1m1 0h4m1 0h1m5 0h1M2 4.5h1m1 0h3m1 0h1m1 0h2m2 0h4m3 0h2m1 0h1m1 0h3m4 0h1m1 0h1m1 0h2m2 0h2m1 0h1m1 0h3m1 0h1M2 5.5h1m1 0h3m1 0h1m1 0h1m1 0h2m1 0h1m2 0h1m4 0h1m1 0h1m1 0h3m3 0h2m1 0h1m4 0h1m2 0h1m1 0h3m1 0h1M2 6.5h1m1 0h3m1 0h1m1 0h1m2 0h1m1 0h1m1 0h1m1 0h11m3 0h5m1 0h1m4 0h1m1 0h3m1 0h1M2 7.5h1m5 0h1m1 0h3m2 0h5m2 0h3m3 0h1m1 0h1m1 0h1m1 0h1m5 0h1m3 0h1m5 0h1M2 8.5h7m1 0h1m1 0h1m1 0h1m1 0h1m1 0h1m1 0h1m1 0h1m1 0h1m1 0h1m1 0h1m1 0h1m1 0h1m1 0h1m1 0h1m1 0h1m1 0h1m1 0h1m1 0h7M10 9.5h1m5 0h1m2 0h6m3 0h1m2 0h1m1 0h1m1 0h7M2 10.5h1m1 0h5m2 0h5m1 0h1m1 0h1m1 0h1m2 0h6m1 0h2m1 0h1m1 0h2m6 0h5M3 11.5h2m4 0h3m5 0h1m1 0h3m1 0h2m2 0h1m4 0h3m2 0h2m1 0h1m2 0h1m3 0h4M2 12.5h2m1 0h5m1 0h1m5 0h1m2 0h3m2 0h1m1 0h1m2 0h3m1 0h2m1 0h1m3 0h1m1 0h4m2 0h2M5 13.5h3m1 0h3m4 0h1m2 0h1m2 0h1m3 0h1m1 0h2m1 0h1m1 0h1m1 0h3m1 0h4m2 0h1M2 14.5h2m1 0h2m1 0h1m6 0h3m1 0h3m1 0h1m1 0h3m1 0h1m1 0h2m5 0h2m6 0h2m1 0h1M2 15.5h1m2 0h1m1 0h1m1 0h2m2 0h1m2 0h4m3 0h1m1 0h3m3 0h3m1 0h1m2 0h1m3 0h1m1 0h1m3 0h2M2 16.5h1m1 0h2m1 0h3m1 0h5m3 0h3m5 0h1m2 0h6m2 0h1m2 0h1m3 0h3m1 0h2M3 17.5h1m5 0h2m1 0h1m3 0h1m1 0h2m3 0h1m2 0h1m1 0h1m3 0h2m1 0h1m2 0h1m1 0h3m2 0h1m1 0h2m1 0h1M2 18.5h3m1 0h1m1 0h1m4 0h2m2 0h1m2 0h2m5 0h3m1 0h2m5 0h4m1 0h1m1 0h1m1 0h1M2 19.5h1m9 0h2m3 0h8m1 0h1m5 0h2m1 0h1m2 0h1m1 0h1m5 0h1m3 0h1M2 20.5h2m1 0h1m1 0h2m3 0h4m2 0h5m1 0h2m1 0h1m1 0h1m1 0h2m5 0h2m3 0h5m1 0h2M2 21.5h6m2 0h1m3 0h4m1 0h2m1 0h1m1 0h3m2 0h1m1 0h1m1 0h1m1 0h8m2 0h2m2 0h2M4 22.5h1m3 0h1m3 0h1m1 0h1m5 0h1m2 0h1m2 0h2m1 0h3m1 0h2m1 0h3m1 0h4m4 0h1M2 23.5h1m4 0h1m2 0h2m1 0h1m1 0h1m4 0h1m1 0h4m3 0h1m1 0h1m1 0h1m4 0h2m3 0h1m1 0h4m1 0h1M4 24.5h1m1 0h5m4 0h2m3 0h1m3 0h5m1 0h6m4 0h1m1 0h5m1 0h3M2 25.5h1m3 0h1m3 0h2m1 0h1m3 0h1m1 0h6m3 0h1m4 0h1m1 0h2m1 0h3m1 0h1m3 0h2m2 0h1M3 26.5h1m1 0h2m1 0h1m1 0h3m1 0h1m1 0h2m3 0h1m1 0h2m1 0h1m1 0h1m1 0h4m8 0h1m1 0h1m1 0h1M2 27.5h2m1 0h2m3 0h2m7 0h1m4 0h1m3 0h2m1 0h2m1 0h1m3 0h1m2 0h2m3 0h1m1 0h3M3 28.5h1m2 0h5m1 0h3m1 0h1m1 0h1m1 0h1m2 0h6m1 0h3m1 0h2m1 0h1m1 0h1m2 0h6m2 0h1M2 29.5h2m1 0h1m3 0h1m1 0h2m2 0h1m1 0h2m2 0h2m1 0h1m2 0h1m5 0h6m1 0h2m1 0h2m2 0h4M3 30.5h1m1 0h1m1 0h2m1 0h4m1 0h1m7 0h4m2 0h1m1 0h1m2 0h1m3 0h2m1 0h2m2 0h1m1 0h1m1 0h1M3 31.5h2m1 0h2m1 0h1m2 0h7m2 0h2m3 0h1m1 0h3m1 0h2m3 0h1m1 0h1m1 0h2m2 0h2m1 0h1M3 32.5h1m1 0h1m2 0h1m2 0h1m7 0h1m2 0h2m1 0h2m3 0h6m1 0h1m4 0h3m2 0h1m1 0h2M3 33.5h1m1 0h2m3 0h5m6 0h2m3 0h2m1 0h1m1 0h1m4 0h1m1 0h1m1 0h8M2 34.5h4m2 0h1m1 0h2m1 0h1m2 0h1m3 0h2m2 0h3m1 0h1m1 0h1m2 0h4m4 0h3m1 0h1m3 0h1M9 35.5h5m4 0h1m1 0h3m2 0h1m1 0h1m1 0h3m2 0h1m1 0h2m1 0h5m6 0h1M2 36.5h1m3 0h3m1 0h1m1 0h1m2 0h1m2 0h1m1 0h1m2 0h2m5 0h1m1 0h4m3 0h1m4 0h1m2 0h1m1 0h2M3 37.5h1m1 0h1m3 0h1m1 0h1m1 0h1m1 0h2m2 0h1m1 0h2m6 0h1m1 0h1m1 0h1m1 0h1m1 0h6m2 0h2m2 0h2M3 38.5h4m1 0h3m3 0h1m2 0h2m4 0h1m2 0h1m1 0h1m2 0h2m3 0h1m1 0h2m1 0h1m3 0h1m2 0h1M4 39.5h4m1 0h5m3 0h1m1 0h3m1 0h4m1 0h1m3 0h1m3 0h1m1 0h2m1 0h1m2 0h1m2 0h4M3 40.5h1m3 0h3m1 0h1m2 0h1m3 0h4m1 0h5m1 0h6m1 0h2m2 0h1m1 0h4m2 0h1m1 0h1M3 41.5h3m3 0h1m1 0h3m3 0h1m1 0h2m1 0h1m4 0h1m3 0h1m1 0h1m2 0h1m1 0h1m3 0h1m1 0h1m3 0h1m1 0h1M2 42.5h3m3 0h1m2 0h2m1 0h2m4 0h1m2 0h6m3 0h1m2 0h1m1 0h2m1 0h7m2 0h1M10 43.5h2m3 0h1m1 0h4m1 0h1m1 0h1m3 0h1m6 0h5m2 0h1m3 0h1m1 0h3M2 44.5h7m2 0h1m4 0h1m1 0h2m4 0h1m1 0h1m1 0h8m6 0h1m1 0h1m1 0h2m1 0h1M2 45.5h1m5 0h1m1 0h2m1 0h2m2 0h1m1 0h1m1 0h2m1 0h1m3 0h1m4 0h1m2 0h1m2 0h2m1 0h1m3 0h2m2 0h1M2 46.5h1m1 0h3m1 0h1m1 0h2m5 0h2m2 0h1m1 0h6m2 0h2m1 0h2m2 0h1m3 0h5m2 0h2M2 47.5h1m1 0h3m1 0h1m1 0h4m3 0h3m3 0h1m1 0h4m3 0h1m2 0h4m1 0h1m4 0h4m1 0h1M2 48.5h1m1 0h3m1 0h1m1 0h2m2 0h1m1 0h2m1 0h1m1 0h1m2 0h3m1 0h3m1 0h1m2 0h1m1 0h2m3 0h4m1 0h1m2 0h1M2 49.5h1m5 0h1m2 0h1m4 0h3m4 0h1m1 0h4m3 0h2m1 0h1m2 0h1m1 0h2m2 0h1m5 0h1M2 50.5h7m1 0h2m1 0h2m2 0h1m3 0h1m1 0h1m5 0h1m1 0h2m4 0h3m2 0h3m4 0h2"/></svg>
